{
	"asset":{
		"generator":"Khronos glTF Blender I/O v4.2.60",
		"version":"2.0"
	},
	"extensionsUsed":[
		"KHR_materials_specular",
		"KHR_materials_ior"
	],
	"scene":0,
	"scenes":[
		{
			"name":"Scene",
			"nodes":[
				0,
				1,
				2,
				3,
				4,
				5,
				6,
				7,
				8
			]
		}
	],
	"nodes":[
		{
			"extras":{
				"ant_landscape":{}
			},
			"mesh":0,
			"name":"Body",
			"rotation":[
				-1,
				0,
				0,
				7.549790126404332e-08
			],
			"scale":[
				0.5,
				0.5,
				0.5
			]
		},
		{
			"extras":{
				"ant_landscape":{}
			},
			"mesh":1,
			"name":"Cube.001",
			"rotation":[
				-0.22389893233776093,
				0,
				0,
				0.9746124744415283
			],
			"scale":[
				0.4644303023815155,
				0.25801682472229004,
				0.05160336196422577
			],
			"translation":[
				0,
				0.20839907228946686,
				0.6031662821769714
			]
		},
		{
			"extras":{
				"ant_landscape":{}
			},
			"mesh":2,
			"name":"Cube.002",
			"rotation":[
				0,
				0.22389893233776093,
				-0.9746124744415283,
				4.971554666535199e-17
			],
			"scale":[
				-0.4644300043582916,
				-0.25801682472229004,
				-0.05160336196422577
			],
			"translation":[
				0,
				0.20839907228946686,
				-0.6067832708358765
			]
		},
		{
			"extras":{
				"ant_landscape":{}
			},
			"mesh":3,
			"name":"Cube.003",
			"rotation":[
				-0.016370944678783417,
				0.7069173455238342,
				0.016370967030525208,
				0.7069172263145447
			],
			"scale":[
				0.4644303023815155,
				0.25801682472229004,
				0.05160336196422577
			],
			"translation":[
				0.4741922914981842,
				0.20343969762325287,
				0.008298873901367188
			]
		},
		{
			"extras":{
				"ant_landscape":{}
			},
			"mesh":4,
			"name":"Cube.004",
			"rotation":[
				0.7069172263145447,
				-0.016370967030525208,
				0.7069173455238342,
				0.016370944678783417
			],
			"scale":[
				-0.4644303023815155,
				-0.25801682472229004,
				-0.05160336196422577
			],
			"translation":[
				-0.4748833179473877,
				0.20343969762325287,
				0.008298873901367188
			]
		},
		{
			"extras":{
				"ant_landscape":{}
			},
			"mesh":5,
			"name":"Front-light",
			"rotation":[
				0.7071068286895752,
				0,
				0,
				0.7071068286895752
			],
			"scale":[
				0.05951295047998428,
				0.05951295047998428,
				0.05951295047998428
			],
			"translation":[
				0.30000001192092896,
				-0.18949884176254272,
				0.825803816318512
			]
		},
		{
			"extras":{
				"ant_landscape":{}
			},
			"mesh":5,
			"name":"Front-light.001",
			"rotation":[
				0.7071068286895752,
				0,
				0,
				0.7071068286895752
			],
			"scale":[
				0.05951295047998428,
				0.05951295047998428,
				0.05951295047998428
			],
			"translation":[
				-0.30000001192092896,
				-0.18949884176254272,
				0.825803816318512
			]
		},
		{
			"extras":{
				"ant_landscape":{}
			},
			"mesh":6,
			"name":"Rear-light",
			"rotation":[
				0,
				0,
				0.7071068286895752,
				0.7071068286895752
			],
			"scale":[
				0.055030226707458496,
				0.10000002384185791,
				0.040000006556510925
			],
			"translation":[
				0.30000001192092896,
				-0.1900000125169754,
				-0.8579884171485901
			]
		},
		{
			"extras":{
				"ant_landscape":{}
			},
			"mesh":6,
			"name":"Rear-light.001",
			"rotation":[
				0,
				0,
				0.7071068286895752,
				0.7071068286895752
			],
			"scale":[
				0.055030226707458496,
				0.10000002384185791,
				0.040000006556510925
			],
			"translation":[
				-0.30000001192092896,
				-0.1900000125169754,
				-0.8579884171485901
			]
		}
	],
	"materials":[
		{
			"doubleSided":true,
			"name":"car-body",
			"pbrMetallicRoughness":{
				"baseColorFactor":[
					0.800000011920929,
					0.800000011920929,
					0.800000011920929,
					1
				],
				"metallicFactor":0,
				"roughnessFactor":0.5
			}
		},
		{
			"doubleSided":true,
			"extensions":{
				"KHR_materials_specular":{
					"specularColorFactor":[
						1.2514969110488892,
						1.2514969110488892,
						1.2514969110488892
					]
				},
				"KHR_materials_ior":{
					"ior":1.4500000476837158
				}
			},
			"name":"Glass",
			"pbrMetallicRoughness":{
				"baseColorFactor":[
					0.020791614428162575,
					0.020791614428162575,
					0.020791614428162575,
					1
				],
				"metallicFactor":0,
				"roughnessFactor":0.128742516040802
			}
		},
		{
			"doubleSided":true,
			"name":"Material.001",
			"pbrMetallicRoughness":{
				"baseColorFactor":[
					0.03243927285075188,
					0.03243927285075188,
					0.03243927285075188,
					1
				],
				"metallicFactor":0,
				"roughnessFactor":0.5
			}
		},
		{
			"doubleSided":true,
			"emissiveFactor":[
				1,
				1,
				0
			],
			"name":"Material.002",
			"pbrMetallicRoughness":{
				"baseColorFactor":[
					1,
					1,
					0,
					1
				],
				"metallicFactor":0,
				"roughnessFactor":0.5
			}
		},
		{
			"alphaMode":"BLEND",
			"name":"front-light-glass",
			"pbrMetallicRoughness":{
				"baseColorFactor":[
					1,
					1,
					0.40804433822631836,
					0.7604790925979614
				],
				"metallicFactor":0,
				"roughnessFactor":0.5
			}
		},
		{
			"doubleSided":true,
			"name":"Material.003",
			"pbrMetallicRoughness":{
				"baseColorFactor":[
					1,
					0.3500000238418579,
					0.3500000238418579,
					1
				],
				"metallicFactor":0,
				"roughnessFactor":0.5
			}
		}
	],
	"meshes":[
		{
			"name":"Cube.001",
			"primitives":[
				{
					"attributes":{
						"POSITION":0,
						"NORMAL":1,
						"TEXCOORD_0":2,
						"TANGENT":3
					},
					"indices":4,
					"material":0
				}
			]
		},
		{
			"name":"Cube.003",
			"primitives":[
				{
					"attributes":{
						"POSITION":5,
						"NORMAL":6,
						"TEXCOORD_0":7,
						"TANGENT":8
					},
					"indices":9,
					"material":1
				}
			]
		},
		{
			"name":"Cube.004",
			"primitives":[
				{
					"attributes":{
						"POSITION":10,
						"NORMAL":11,
						"TEXCOORD_0":12,
						"TANGENT":13
					},
					"indices":9,
					"material":1
				}
			]
		},
		{
			"name":"Cube.005",
			"primitives":[
				{
					"attributes":{
						"POSITION":14,
						"NORMAL":15,
						"TEXCOORD_0":16,
						"TANGENT":17
					},
					"indices":18,
					"material":1
				}
			]
		},
		{
			"name":"Cube.006",
			"primitives":[
				{
					"attributes":{
						"POSITION":19,
						"NORMAL":20,
						"TEXCOORD_0":21,
						"TANGENT":22
					},
					"indices":18,
					"material":1
				}
			]
		},
		{
			"name":"Cylinder",
			"primitives":[
				{
					"attributes":{
						"POSITION":23,
						"NORMAL":24,
						"TEXCOORD_0":25
					},
					"indices":26,
					"material":2
				},
				{
					"attributes":{
						"POSITION":27,
						"NORMAL":28,
						"TEXCOORD_0":29
					},
					"indices":30,
					"material":3
				},
				{
					"attributes":{
						"POSITION":31,
						"NORMAL":32,
						"TEXCOORD_0":33
					},
					"indices":34,
					"material":4
				}
			]
		},
		{
			"name":"Cube.007",
			"primitives":[
				{
					"attributes":{
						"POSITION":35,
						"NORMAL":36,
						"TEXCOORD_0":37,
						"TANGENT":38
					},
					"indices":39,
					"material":5
				},
				{
					"attributes":{
						"POSITION":40,
						"NORMAL":41,
						"TEXCOORD_0":42,
						"TANGENT":43
					},
					"indices":44,
					"material":2
				}
			]
		}
	],
	"accessors":[
		{
			"bufferView":0,
			"componentType":5126,
			"count":24,
			"max":[
				1.1039531230926514,
				0.8354513049125671,
				1.9088383913040161
			],
			"min":[
				-1.1039531230926514,
				-1,
				-1.9088383913040161
			],
			"type":"VEC3"
		},
		{
			"bufferView":1,
			"componentType":5126,
			"count":24,
			"type":"VEC3"
		},
		{
			"bufferView":2,
			"componentType":5126,
			"count":24,
			"type":"VEC2"
		},
		{
			"bufferView":3,
			"componentType":5126,
			"count":24,
			"type":"VEC4"
		},
		{
			"bufferView":4,
			"componentType":5123,
			"count":36,
			"type":"SCALAR"
		},
		{
			"bufferView":5,
			"componentType":5126,
			"count":24,
			"max":[
				1,
				1,
				1
			],
			"min":[
				-1,
				-1,
				-1
			],
			"type":"VEC3"
		},
		{
			"bufferView":6,
			"componentType":5126,
			"count":24,
			"type":"VEC3"
		},
		{
			"bufferView":7,
			"componentType":5126,
			"count":24,
			"type":"VEC2"
		},
		{
			"bufferView":8,
			"componentType":5126,
			"count":24,
			"type":"VEC4"
		},
		{
			"bufferView":9,
			"componentType":5123,
			"count":36,
			"type":"SCALAR"
		},
		{
			"bufferView":10,
			"componentType":5126,
			"count":24,
			"max":[
				1,
				1,
				1
			],
			"min":[
				-1,
				-1,
				-1
			],
			"type":"VEC3"
		},
		{
			"bufferView":11,
			"componentType":5126,
			"count":24,
			"type":"VEC3"
		},
		{
			"bufferView":12,
			"componentType":5126,
			"count":24,
			"type":"VEC2"
		},
		{
			"bufferView":13,
			"componentType":5126,
			"count":24,
			"type":"VEC4"
		},
		{
			"bufferView":14,
			"componentType":5126,
			"count":24,
			"max":[
				1.5249459743499756,
				1,
				1.013594150543213
			],
			"min":[
				-1.5249459743499756,
				-0.8047884106636047,
				-1.0092625617980957
			],
			"type":"VEC3"
		},
		{
			"bufferView":15,
			"componentType":5126,
			"count":24,
			"type":"VEC3"
		},
		{
			"bufferView":16,
			"componentType":5126,
			"count":24,
			"type":"VEC2"
		},
		{
			"bufferView":17,
			"componentType":5126,
			"count":24,
			"type":"VEC4"
		},
		{
			"bufferView":18,
			"componentType":5123,
			"count":36,
			"type":"SCALAR"
		},
		{
			"bufferView":19,
			"componentType":5126,
			"count":24,
			"max":[
				1.5249459743499756,
				1,
				1.013594150543213
			],
			"min":[
				-1.5249459743499756,
				-0.8047884106636047,
				-1.0092625617980957
			],
			"type":"VEC3"
		},
		{
			"bufferView":20,
			"componentType":5126,
			"count":24,
			"type":"VEC3"
		},
		{
			"bufferView":21,
			"componentType":5126,
			"count":24,
			"type":"VEC2"
		},
		{
			"bufferView":22,
			"componentType":5126,
			"count":24,
			"type":"VEC4"
		},
		{
			"bufferView":23,
			"componentType":5126,
			"count":136,
			"max":[
				1.695691704750061,
				1.8204429149627686,
				1.6956915855407715
			],
			"min":[
				-1.695691704750061,
				-0.41751909255981445,
				-1.6956919431686401
			],
			"type":"VEC3"
		},
		{
			"bufferView":24,
			"componentType":5126,
			"count":136,
			"type":"VEC3"
		},
		{
			"bufferView":25,
			"componentType":5126,
			"count":136,
			"type":"VEC2"
		},
		{
			"bufferView":26,
			"componentType":5123,
			"count":258,
			"type":"SCALAR"
		},
		{
			"bufferView":27,
			"componentType":5126,
			"count":8,
			"max":[
				1.1637173891067505,
				1,
				1.163717269897461
			],
			"min":[
				-1.1637173891067505,
				1,
				-1.16371750831604
			],
			"type":"VEC3"
		},
		{
			"bufferView":28,
			"componentType":5126,
			"count":8,
			"type":"VEC3"
		},
		{
			"bufferView":29,
			"componentType":5126,
			"count":8,
			"type":"VEC2"
		},
		{
			"bufferView":30,
			"componentType":5123,
			"count":18,
			"type":"SCALAR"
		},
		{
			"bufferView":31,
			"componentType":5126,
			"count":8,
			"max":[
				1.3782936334609985,
				1.8204429149627686,
				1.378293514251709
			],
			"min":[
				-1.3782936334609985,
				1.8204429149627686,
				-1.3782938718795776
			],
			"type":"VEC3"
		},
		{
			"bufferView":32,
			"componentType":5126,
			"count":8,
			"type":"VEC3"
		},
		{
			"bufferView":33,
			"componentType":5126,
			"count":8,
			"type":"VEC2"
		},
		{
			"bufferView":34,
			"componentType":5123,
			"count":18,
			"type":"SCALAR"
		},
		{
			"bufferView":35,
			"componentType":5126,
			"count":4,
			"max":[
				1,
				1,
				-1
			],
			"min":[
				-1,
				-1,
				-1
			],
			"type":"VEC3"
		},
		{
			"bufferView":36,
			"componentType":5126,
			"count":4,
			"type":"VEC3"
		},
		{
			"bufferView":37,
			"componentType":5126,
			"count":4,
			"type":"VEC2"
		},
		{
			"bufferView":38,
			"componentType":5126,
			"count":4,
			"type":"VEC4"
		},
		{
			"bufferView":39,
			"componentType":5123,
			"count":6,
			"type":"SCALAR"
		},
		{
			"bufferView":40,
			"componentType":5126,
			"count":20,
			"max":[
				1,
				1,
				1
			],
			"min":[
				-1,
				-1,
				-1
			],
			"type":"VEC3"
		},
		{
			"bufferView":41,
			"componentType":5126,
			"count":20,
			"type":"VEC3"
		},
		{
			"bufferView":42,
			"componentType":5126,
			"count":20,
			"type":"VEC2"
		},
		{
			"bufferView":43,
			"componentType":5126,
			"count":20,
			"type":"VEC4"
		},
		{
			"bufferView":44,
			"componentType":5123,
			"count":30,
			"type":"SCALAR"
		}
	],
	"bufferViews":[
		{
			"buffer":0,
			"byteLength":288,
			"byteOffset":0,
			"target":34962
		},
		{
			"buffer":0,
			"byteLength":288,
			"byteOffset":288,
			"target":34962
		},
		{
			"buffer":0,
			"byteLength":192,
			"byteOffset":576,
			"target":34962
		},
		{
			"buffer":0,
			"byteLength":384,
			"byteOffset":768,
			"target":34962
		},
		{
			"buffer":0,
			"byteLength":72,
			"byteOffset":1152,
			"target":34963
		},
		{
			"buffer":0,
			"byteLength":288,
			"byteOffset":1224,
			"target":34962
		},
		{
			"buffer":0,
			"byteLength":288,
			"byteOffset":1512,
			"target":34962
		},
		{
			"buffer":0,
			"byteLength":192,
			"byteOffset":1800,
			"target":34962
		},
		{
			"buffer":0,
			"byteLength":384,
			"byteOffset":1992,
			"target":34962
		},
		{
			"buffer":0,
			"byteLength":72,
			"byteOffset":2376,
			"target":34963
		},
		{
			"buffer":0,
			"byteLength":288,
			"byteOffset":2448,
			"target":34962
		},
		{
			"buffer":0,
			"byteLength":288,
			"byteOffset":2736,
			"target":34962
		},
		{
			"buffer":0,
			"byteLength":192,
			"byteOffset":3024,
			"target":34962
		},
		{
			"buffer":0,
			"byteLength":384,
			"byteOffset":3216,
			"target":34962
		},
		{
			"buffer":0,
			"byteLength":288,
			"byteOffset":3600,
			"target":34962
		},
		{
			"buffer":0,
			"byteLength":288,
			"byteOffset":3888,
			"target":34962
		},
		{
			"buffer":0,
			"byteLength":192,
			"byteOffset":4176,
			"target":34962
		},
		{
			"buffer":0,
			"byteLength":384,
			"byteOffset":4368,
			"target":34962
		},
		{
			"buffer":0,
			"byteLength":72,
			"byteOffset":4752,
			"target":34963
		},
		{
			"buffer":0,
			"byteLength":288,
			"byteOffset":4824,
			"target":34962
		},
		{
			"buffer":0,
			"byteLength":288,
			"byteOffset":5112,
			"target":34962
		},
		{
			"buffer":0,
			"byteLength":192,
			"byteOffset":5400,
			"target":34962
		},
		{
			"buffer":0,
			"byteLength":384,
			"byteOffset":5592,
			"target":34962
		},
		{
			"buffer":0,
			"byteLength":1632,
			"byteOffset":5976,
			"target":34962
		},
		{
			"buffer":0,
			"byteLength":1632,
			"byteOffset":7608,
			"target":34962
		},
		{
			"buffer":0,
			"byteLength":1088,
			"byteOffset":9240,
			"target":34962
		},
		{
			"buffer":0,
			"byteLength":516,
			"byteOffset":10328,
			"target":34963
		},
		{
			"buffer":0,
			"byteLength":96,
			"byteOffset":10844,
			"target":34962
		},
		{
			"buffer":0,
			"byteLength":96,
			"byteOffset":10940,
			"target":34962
		},
		{
			"buffer":0,
			"byteLength":64,
			"byteOffset":11036,
			"target":34962
		},
		{
			"buffer":0,
			"byteLength":36,
			"byteOffset":11100,
			"target":34963
		},
		{
			"buffer":0,
			"byteLength":96,
			"byteOffset":11136,
			"target":34962
		},
		{
			"buffer":0,
			"byteLength":96,
			"byteOffset":11232,
			"target":34962
		},
		{
			"buffer":0,
			"byteLength":64,
			"byteOffset":11328,
			"target":34962
		},
		{
			"buffer":0,
			"byteLength":36,
			"byteOffset":11392,
			"target":34963
		},
		{
			"buffer":0,
			"byteLength":48,
			"byteOffset":11428,
			"target":34962
		},
		{
			"buffer":0,
			"byteLength":48,
			"byteOffset":11476,
			"target":34962
		},
		{
			"buffer":0,
			"byteLength":32,
			"byteOffset":11524,
			"target":34962
		},
		{
			"buffer":0,
			"byteLength":64,
			"byteOffset":11556,
			"target":34962
		},
		{
			"buffer":0,
			"byteLength":12,
			"byteOffset":11620,
			"target":34963
		},
		{
			"buffer":0,
			"byteLength":240,
			"byteOffset":11632,
			"target":34962
		},
		{
			"buffer":0,
			"byteLength":240,
			"byteOffset":11872,
			"target":34962
		},
		{
			"buffer":0,
			"byteLength":160,
			"byteOffset":12112,
			"target":34962
		},
		{
			"buffer":0,
			"byteLength":320,
			"byteOffset":12272,
			"target":34962
		},
		{
			"buffer":0,
			"byteLength":60,
			"byteOffset":12592,
			"target":34963
		}
	],
	"buffers":[
		{
			"byteLength":12652,
			"uri":"car_base-d9f62a57eda3c9dd4112c044b073ef67.bin"
		}
	]
}
